<svg width="67" height="48" viewBox="0 0 67 48" fill="none" xmlns="http://www.w3.org/2000/svg">
<path d="M23.8333 16.5H22.8333V17.5H23.8333V16.5ZM23.8333 2V1H22.8333V2H23.8333ZM43.8333 2H44.8333V1H43.8333V2ZM43.8333 12.5L44.5404 13.2071L44.8333 12.9142V12.5H43.8333ZM39.8333 16.5V17.5H40.2475L40.5404 17.2071L39.8333 16.5ZM33.3333 16.5V15.5H32.9191L32.6262 15.7929L33.3333 16.5ZM27.8333 22H26.8333C26.8333 22.4045 27.077 22.7691 27.4506 22.9239C27.8243 23.0787 28.2544 22.9931 28.5404 22.7071L27.8333 22ZM27.8333 16.5H28.8333V15.5H27.8333V16.5ZM24.8333 16.5V2H22.8333V16.5H24.8333ZM23.8333 3H43.8333V1H23.8333V3ZM42.8333 2V12.5H44.8333V2H42.8333ZM43.1262 11.7929L39.1262 15.7929L40.5404 17.2071L44.5404 13.2071L43.1262 11.7929ZM39.8333 15.5H33.3333V17.5H39.8333V15.5ZM32.6262 15.7929L27.1262 21.2929L28.5404 22.7071L34.0404 17.2071L32.6262 15.7929ZM28.8333 22V16.5H26.8333V22H28.8333ZM27.8333 15.5H23.8333V17.5H27.8333V15.5Z" fill="#AAAAAA"/>
<rect x="26.8333" y="5.5" width="10" height="2" rx="1" fill="#AAAAAA"/>
<rect x="26.8333" y="9.5" width="7" height="2" rx="1" fill="#AAAAAA"/>
<path d="M13.8958 32.5781H7.33325V34.1719H11.9036C11.8489 34.8516 11.7473 35.4922 11.5833 36.0938L6.56763 36.3906L6.83325 38.0781L10.9661 37.7031C10.1458 39.2812 8.7395 40.6016 6.4895 41.7812L7.58325 43.2812C12.7083 40.6172 13.8879 36.9531 13.8958 32.5781ZM13.8645 38.3125H16.5989V45.4375H18.5833V31.2188H16.5989V36.6875H13.8645V38.3125ZM33.427 39.1562H20.4114V40.75H23.427V45.4688H25.427V40.75H28.4895V45.4688H30.4895V40.75H33.427V39.1562ZM21.9426 37.625H31.8645V31.8906H21.9426V37.625ZM23.9114 36.0312V33.4688H29.8801V36.0312H23.9114ZM46.2083 31.2188H44.2239V45.4375H46.2083V31.2188ZM35.0208 41.9219H36.2708C38.4661 41.9297 40.8254 41.7734 43.3176 41.25L43.0676 39.6094C40.9739 40.0156 38.9114 40.1953 36.9895 40.2266V32.5781H35.0208V41.9219ZM56.0989 32.3906H48.8645V42.2031H50.0833C52.6536 42.2031 54.6926 42.1406 56.927 41.8125L56.7395 40.2031C54.7473 40.5078 53.0129 40.5938 50.8333 40.6094V37.9219H55.5051V36.3594H50.8333V34.0156H56.0989V32.3906ZM58.0208 45.4375H60.0364V31.2188H58.0208V45.4375Z" fill="#AAAAAA"/>
</svg>
