<svg width="14" height="17" viewBox="0 0 14 17" fill="none" xmlns="http://www.w3.org/2000/svg">
<path fill-rule="evenodd" clip-rule="evenodd" d="M0.274461 5.175C0 5.77174 0 6.45062 0 7.80838V12.0488C0 13.9344 0 14.8772 0.585786 15.463C1.11733 15.9945 1.94285 16.0437 3.5 16.0483V11.0488C3.5 9.94426 4.39543 9.04883 5.5 9.04883H8.5C9.60457 9.04883 10.5 9.94426 10.5 11.0488V16.0483C12.0572 16.0437 12.8827 15.9945 13.4142 15.463C14 14.8772 14 13.9344 14 12.0488V7.80838C14 6.45062 14 5.77174 13.7255 5.175C13.4511 4.57826 12.9356 4.13645 11.9047 3.25284L10.9047 2.39569C9.04143 0.798564 8.10977 0 7 0C5.89023 0 4.95857 0.798565 3.09525 2.39569L2.09525 3.25284C1.06437 4.13645 0.548923 4.57826 0.274461 5.175ZM8.5 16.0488V11.0488H5.5V16.0488H8.5Z" fill="#3D6177"/>
</svg>
