<svg width="67" height="48" viewBox="0 0 67 48" fill="none" xmlns="http://www.w3.org/2000/svg">
<path d="M23.1666 21V11L33.1666 3L43.1666 11V21" stroke="#070707" stroke-width="2"/>
<path d="M29.1666 21V14H37.1666V21" stroke="#070707" stroke-width="2"/>
<path d="M38.0963 41.1094H28.1744V45.2812H38.0963V41.1094ZM26.6744 40.3906H39.6432V38.8281H34.1588V38.1328C36.6041 37.9922 37.9323 37.3125 37.9401 36.125C37.9323 34.7812 36.2369 34.1016 33.1588 34.0938C30.0963 34.1016 28.3619 34.7812 28.3776 36.125C28.3619 37.3125 29.7213 37.9922 32.1588 38.1328V38.8281H26.6744V40.3906ZM27.2994 33.7344H38.9713V32.2344H34.1588V31.0938H32.1588V32.2344H27.2994V33.7344ZM30.1432 43.7969V42.5938H36.1432V43.7969H30.1432ZM30.5026 36.125C30.5026 35.625 31.3619 35.4453 33.1588 35.4375C34.9713 35.4453 35.7994 35.625 35.7994 36.125C35.7994 36.6016 34.9713 36.8125 33.1588 36.8125C31.3619 36.8125 30.5026 36.6016 30.5026 36.125Z" fill="#070707"/>
</svg>
