<svg width="68" height="48" viewBox="0 0 68 48" fill="none" xmlns="http://www.w3.org/2000/svg">
<circle cx="34.5001" cy="7.5" r="5" stroke="#AAAAAA" stroke-width="2"/>
<path d="M44.5001 22.5C44.5001 21.1868 44.2414 19.8864 43.7389 18.6732C43.2363 17.4599 42.4997 16.3575 41.5711 15.4289C40.6425 14.5003 39.5402 13.7638 38.3269 13.2612C37.1136 12.7587 35.8133 12.5 34.5001 12.5C33.1868 12.5 31.8865 12.7587 30.6732 13.2612C29.46 13.7638 28.3576 14.5003 27.429 15.4289C26.5004 16.3575 25.7638 17.4599 25.2613 18.6732C24.7587 19.8864 24.5001 21.1868 24.5001 22.5" stroke="#AAAAAA" stroke-width="2"/>
<path d="M7.20319 32.5625H0.375061V41.9688H7.20319V32.5625ZM2.34381 40.3906V34.125H5.21881V40.3906H2.34381ZM9.14069 45.4375H11.1407V38.2344H13.2344V36.5781H11.1407V31.2188H9.14069V45.4375ZM25.6563 31.2188H23.6407V45.4688H25.6563V31.2188ZM14.1719 37.2812C14.1641 40.4062 15.7501 42.3594 17.9376 42.3594C20.0782 42.3594 21.6719 40.4062 21.6719 37.2812C21.6719 34.1797 20.0782 32.2188 17.9376 32.2188C15.7501 32.2188 14.1641 34.1797 14.1719 37.2812ZM16.0938 37.2812C16.086 35.1719 16.8282 34.0156 17.9376 34.0156C19.0157 34.0156 19.7422 35.1719 19.7501 37.2812C19.7422 39.3984 19.0157 40.5547 17.9376 40.5469C16.8282 40.5547 16.086 39.3984 16.0938 37.2812ZM40.0157 31.2188H38.0938V45.4375H40.0157V31.2188ZM27.4219 40.5469L27.6407 42.1875C29.4219 42.1875 32.3282 42.1328 34.5782 41.6562L34.4376 40.2188C34.0782 40.2734 33.6954 40.3125 33.2969 40.3516V34.4375H34.2032V32.8281H27.6876V34.4375H28.6094V40.5469H27.4219ZM30.3751 40.5156V34.4375H31.4844V40.4766C31.1094 40.4922 30.7422 40.5078 30.3751 40.5156ZM33.8751 38.1719H35.2501V44.7656H37.1407V31.5H35.2501V36.3906H33.8751V38.1719ZM53.3126 31.2188H51.2969V45.4688H53.3126V31.2188ZM41.8282 37.2812C41.8204 40.4062 43.4063 42.3594 45.5938 42.3594C47.7344 42.3594 49.3282 40.4062 49.3282 37.2812C49.3282 34.1797 47.7344 32.2188 45.5938 32.2188C43.4063 32.2188 41.8204 34.1797 41.8282 37.2812ZM43.7501 37.2812C43.7422 35.1719 44.4844 34.0156 45.5938 34.0156C46.6719 34.0156 47.3985 35.1719 47.4063 37.2812C47.3985 39.3984 46.6719 40.5547 45.5938 40.5469C44.4844 40.5547 43.7422 39.3984 43.7501 37.2812ZM60.7501 35.0938V34.2188H63.7188V32.5938H55.6876V34.2188H58.7032V35.0938C58.7032 37.5 57.4844 40.1328 55.1251 41.1875L56.2657 42.7656C57.9454 41.9922 59.1251 40.4297 59.7657 38.5625C60.4063 40.2812 61.5626 41.6953 63.2344 42.4062L64.3126 40.8438C61.9297 39.8516 60.7422 37.3906 60.7501 35.0938ZM65.1251 45.4375H67.1407V31.2188H65.1251V45.4375Z" fill="#AAAAAA"/>
</svg>
