<svg width="143" height="20" viewBox="0 0 143 20" fill="none" xmlns="http://www.w3.org/2000/svg">
<path d="M40.581 12.5701C39.9763 16.4019 36.0096 20 30.5433 20C24.4722 20 19.9976 15.771 19.9976 10C19.9976 4.22897 24.4722 0 30.5433 0C33.0364 0 35.1505 0.667881 36.7843 1.78054L33.8213 4.64368C32.9588 4.17914 31.8781 3.90187 30.64 3.90187C27.0603 3.90187 24.3997 6.4486 24.3997 10C24.3997 13.528 27.0603 16.0981 30.64 16.0981C33.4699 16.0981 35.7919 14.2991 36.1305 12.5701H40.581Z" fill="white"/>
<path fill-rule="evenodd" clip-rule="evenodd" d="M43.6115 3.10381L31.3051 14.9955L25.6388 9.52015L28.2998 6.94884L31.3051 9.85293L40.9505 0.532516L43.6115 3.10381Z" fill="#12DE7C"/>
<path d="M14.9478 19.5327H19.8578L12.2146 0.490649H7.6432L0 19.5327H4.54722L5.9259 15.8411H13.5691L14.9478 19.5327ZM7.28039 12.1495L9.74749 5.51401L12.2146 12.1495H7.28039Z" fill="white"/>
<path d="M55.5985 19.5327H60.5086L52.8654 0.490649H48.294L40.6508 19.5327H45.198L46.5767 15.8411H54.2199L55.5985 19.5327ZM47.9312 12.1495L50.3983 5.51401L52.8654 12.1495H47.9312Z" fill="white"/>
<path d="M62.4876 19.5327H70.1308C76.6613 19.5327 80.7006 15.6542 80.7006 10.0234C80.7006 4.39252 76.6613 0.490649 70.1308 0.490649H62.4876V19.5327ZM66.8897 15.771V4.25233H70.2033C73.9766 4.25233 76.2985 6.35513 76.2985 10.0234C76.2985 13.6916 73.9766 15.771 70.2033 15.771H66.8897Z" fill="white"/>
<path d="M83.3444 19.5327H98.2196V15.8411H87.7465V11.7523H97.1554V8.06074H87.7465V4.18224H98.0019V0.490649H83.3444V19.5327Z" fill="white"/>
<path d="M101.178 19.5327H105.58V9.08878L110.151 16.4019H112.812L117.383 9.08878V19.5327H121.785V0.490649H118.278L111.482 11.1449L104.685 0.490649H101.178V19.5327Z" fill="white"/>
<path d="M143 0.490649H138.332L133.615 9.48598L128.875 0.490649H123.844L131.221 13.5514V19.5327H135.623V13.5514L143 0.490649Z" fill="white"/>
</svg>
