<svg width="192" height="131" viewBox="0 0 192 131" fill="none" xmlns="http://www.w3.org/2000/svg">
<rect width="192" height="131" fill="#95ECDC"/>
<path d="M116.353 70.8832C115.227 78.1636 107.835 85 97.6499 85C86.3377 85 78 76.965 78 66C78 55.0351 86.3377 47 97.6499 47C102.295 47 106.235 48.269 109.279 50.383L103.758 55.823C102.151 54.9404 100.137 54.4136 97.8301 54.4136C91.16 54.4136 86.2025 59.2523 86.2025 66C86.2025 72.7033 91.16 77.5864 97.8301 77.5864C103.103 77.5864 107.43 74.1682 108.061 70.8832H116.353Z" fill="white"/>
<path fill-rule="evenodd" clip-rule="evenodd" d="M122 52.8972L99.0695 75.4915L88.5113 65.0883L93.4695 60.2028L99.0694 65.7206L117.042 48.0118L122 52.8972Z" fill="#12DE7C"/>
</svg>
