<svg width="351" height="177" viewBox="0 0 351 177" fill="none" xmlns="http://www.w3.org/2000/svg">
<path d="M27.3566 41.968V35.344H41.7086V10.96H4.74863V35.344H19.1006V41.968H2.49263V49.552H43.9646V41.968H27.3566ZM12.8126 18.544H33.6446V27.808H12.8126V18.544ZM88.2165 24.208H59.3205V17.92H87.7365V10.48H51.0645V31.6H88.2165V24.208ZM90.1365 35.008H48.6645V42.496H65.2245V51.952H73.5765V42.496H90.1365V35.008ZM134.58 10H126.468V50.992H134.58V10ZM109.044 10.288C101.412 10.288 95.9404 15.568 95.9404 23.584C95.9404 31.6 101.412 36.88 109.044 36.88C116.628 36.88 122.1 31.6 122.1 23.584C122.1 15.568 116.628 10.288 109.044 10.288ZM109.044 17.536C112.26 17.536 114.324 20.128 114.324 23.584C114.324 27.088 112.26 29.632 109.044 29.632C105.78 29.632 103.764 27.088 103.764 23.584C103.764 20.128 105.78 17.536 109.044 17.536ZM124.116 47.344V39.856C121.572 41.008 117.3 41.488 113.508 41.488H94.8364V49.072H113.172C117.252 49.072 121.572 48.496 124.116 47.344ZM194.109 10H185.997V50.992H194.109V10ZM179.661 10.96H156.045V18.352H171.357V22.048C171.357 33.904 165.981 41.296 156.045 41.392V49.072C170.397 49.072 179.661 38.704 179.661 22.048V10.96ZM239.273 26.128L240.809 20.512L225.593 17.632C225.737 17.392 225.833 17.152 225.929 16.864H239.993V11.248H225.497V8.368H217.241V11.248H202.745V16.864H216.905C214.361 18.88 207.977 20.032 202.025 20.176V25.936C208.889 25.84 215.609 24.544 220.217 22.24L239.273 26.128ZM242.105 32.656V27.04H200.633V32.656H217.241V34.384H202.985V39.184H231.785V40.576H203.081V50.992H240.137V46.144H211.001V44.752H239.705V34.384H225.497V32.656H242.105ZM285.781 10H249.301V27.376H285.781V10ZM277.717 20.992H257.365V16.384H277.717V20.992ZM246.805 29.776V36.448H263.461V42.016H271.621V36.448H288.277V29.776H246.805ZM257.461 38.848H249.205V50.992H286.357V44.272H257.461V38.848ZM326.193 10V50.992H333.777V10H326.193ZM315.873 24.592H310.641V32.224H315.873V43.888L306.897 28.336C307.233 25.312 307.425 21.952 307.473 18.304H313.233V10.96H293.793V18.304H299.793C299.649 31.984 297.105 40.576 292.977 41.152V49.072C298.257 48.88 302.145 45.424 304.545 38.848L309.825 48.448L315.873 45.088V50.272H323.361V10.192H315.873V24.592ZM348.557 41.728H340.925L339.197 54.16H345.581L348.557 41.728ZM52.8199 87.976H48.0199V73H39.9079V113.992H48.0199V95.848H52.8199V87.976ZM19.2199 104.632V73.72H10.9159V112.072H27.1399C31.0759 112.072 35.4919 111.4 37.9879 110.152V102.808C35.4919 103.96 31.2679 104.632 27.3799 104.632H19.2199ZM95.4398 73H87.3278V113.992H95.4398V73ZM69.9038 73.288C62.2718 73.288 56.7998 78.568 56.7998 86.584C56.7998 94.6 62.2718 99.88 69.9038 99.88C77.4878 99.88 82.9598 94.6 82.9598 86.584C82.9598 78.568 77.4878 73.288 69.9038 73.288ZM69.9038 80.536C73.1198 80.536 75.1838 83.128 75.1838 86.584C75.1838 90.088 73.1198 92.632 69.9038 92.632C66.6398 92.632 64.6238 90.088 64.6238 86.584C64.6238 83.128 66.6398 80.536 69.9038 80.536ZM84.9758 110.344V102.856C82.4318 104.008 78.1598 104.488 74.3678 104.488H55.6958V112.072H74.0318C78.1118 112.072 82.4318 111.496 84.9758 110.344ZM147.049 95.944H155.161V73H147.049V77.224H139.657V84.472H147.049V95.944ZM129.577 87.976L139.417 94.84L143.881 89.272L132.841 81.832C133.753 79.288 134.233 76.552 134.233 73.672L126.073 73.192C125.929 81.448 121.609 87.688 115.225 88.456V95.752C121.177 95.416 126.169 92.44 129.577 87.976ZM136.825 96.52C126.361 96.52 118.105 98.824 118.105 105.496C118.105 112.168 126.361 114.472 136.825 114.472C147.289 114.472 155.545 112.168 155.545 105.496C155.545 98.824 147.289 96.52 136.825 96.52ZM136.825 108.088C131.305 108.088 126.841 107.368 126.841 105.496C126.841 103.672 131.305 102.904 136.825 102.904C142.345 102.904 146.809 103.672 146.809 105.496C146.809 107.368 142.345 108.088 136.825 108.088ZM193.173 73V81.496H187.749V88.456H193.173V97.864H201.285V73H193.173ZM176.037 90.232L186.261 96.952L190.533 91.096L179.349 83.944C179.733 82.744 179.973 81.544 180.069 80.296H188.901V73.48H162.789V80.296H171.861C171.189 85.096 167.733 89.608 162.213 89.992V97.288C168.021 97.144 172.869 94.264 176.037 90.232ZM164.421 106.264H193.029V114.472H201.285V99.304H164.421V106.264ZM246.257 82.12V73H238.145V104.056H246.257V89.752H250.961V82.12H246.257ZM225.233 88.936H233.297V73.288H209.201V80.152H225.233V88.936ZM235.793 96.712V89.944C233.249 91.048 228.977 91.432 225.185 91.432H221.345V83.848H213.329V91.432H207.665V98.2H225.041C229.121 98.2 233.249 97.816 235.793 96.712ZM218.273 101.08H210.065V113.992H246.833V107.08H218.273V101.08ZM293.484 73H285.372V113.992H293.484V73ZM279.42 73.96H255.564V81.256H271.356V89.32H255.66V112.072H272.268C276.348 112.072 280.716 111.352 283.212 110.104V102.808C280.716 103.96 276.492 104.776 272.604 104.776H263.724V96.52H279.42V73.96ZM310.664 72.76H302.504V89.416H339.368V82.696H310.664V72.76ZM341.48 92.248H300.008V99.016H341.48V92.248ZM310.664 101.272H302.408V113.992H339.56V107.224H310.664V101.272Z" fill="#3B4859"/>
<path d="M114.573 161.648C113.387 169.161 105.609 176.217 94.8904 176.217C82.9861 176.217 74.2121 167.924 74.2121 156.608C74.2121 145.292 82.9861 137 94.8904 137C99.779 137 103.924 138.31 107.128 140.491L101.318 146.106C99.6269 145.195 97.5078 144.651 95.0802 144.651C88.0609 144.651 82.8439 149.645 82.8439 156.608C82.8439 163.526 88.0609 168.566 95.0802 168.566C100.629 168.566 105.182 165.038 105.846 161.648H114.573Z" fill="#3B4859"/>
<path fill-rule="evenodd" clip-rule="evenodd" d="M120.515 143.086L96.3843 166.404L85.2736 155.667L90.4913 150.626L96.3843 156.32L115.297 138.044L120.515 143.086Z" fill="#12DE7C"/>
<path d="M64.3102 175.3H73.9379L58.9509 137.962H49.9871L35 175.3H43.9164L46.6197 168.062H61.6068L64.3102 175.3ZM49.2757 160.823L54.1133 147.812L58.9509 160.823H49.2757Z" fill="#3B4859"/>
<path d="M144.02 175.3H153.648L138.66 137.962H129.697L114.71 175.3H123.626L126.329 168.062H141.316L144.02 175.3ZM128.985 160.823L133.823 147.812L138.66 160.823H128.985Z" fill="#3B4859"/>
<path d="M157.528 175.3H172.515C185.321 175.3 193.241 167.695 193.241 156.654C193.241 145.613 185.321 137.962 172.515 137.962H157.528V175.3ZM166.16 167.924V145.338H172.657C180.056 145.338 184.609 149.461 184.609 156.654C184.609 163.847 180.056 167.924 172.657 167.924H166.16Z" fill="#3B4859"/>
<path d="M198.425 175.3H227.593V168.062H207.057V160.044H225.506V152.806H207.057V145.201H227.166V137.962H198.425V175.3Z" fill="#3B4859"/>
<path d="M233.394 175.3H242.025V154.822L250.989 169.161H256.206L265.17 154.822V175.3H273.802V137.962H266.925L253.598 158.853L240.27 137.962H233.394V175.3Z" fill="#3B4859"/>
<path d="M315.4 137.962H306.247L296.998 155.6L287.702 137.962H277.837L292.303 163.572V175.3H300.935V163.572L315.4 137.962Z" fill="#3B4859"/>
</svg>
