<svg width="164" height="164" viewBox="0 0 164 164" fill="none" xmlns="http://www.w3.org/2000/svg">
<mask id="mask0_550_4776" style="mask-type:alpha" maskUnits="userSpaceOnUse" x="0" y="0" width="164" height="164">
<circle cx="82" cy="82" r="82" fill="#160F45"/>
</mask>
<g mask="url(#mask0_550_4776)">
<circle cx="82" cy="82" r="82" fill="#160F45"/>
<g opacity="0.7">
<circle cx="55" cy="78" r="15" fill="url(#paint0_radial_550_4776)"/>
<path d="M32 109.471C32 100.374 39.3741 93 48.4706 93H60.5294C69.6259 93 77 100.374 77 109.471V109.471C77 111.42 75.4198 113 73.4706 113H35.5294C33.5802 113 32 111.42 32 109.471V109.471Z" fill="url(#paint1_radial_550_4776)"/>
</g>
<g opacity="0.7">
<circle cx="110" cy="78" r="15" fill="url(#paint2_radial_550_4776)"/>
<path d="M87 109.471C87 100.374 94.3741 93 103.471 93H115.529C124.626 93 132 100.374 132 109.471V109.471C132 111.42 130.42 113 128.471 113H90.5294C88.5802 113 87 111.42 87 109.471V109.471Z" fill="url(#paint3_radial_550_4776)"/>
</g>
<circle cx="82.5" cy="70.5" r="20.5" fill="url(#paint4_radial_550_4776)"/>
<path d="M51 114.059C51 101.324 61.3238 91 74.0588 91H89.9412C102.676 91 113 101.324 113 114.059V114.059C113 116.788 110.788 119 108.059 119H55.9412C53.2122 119 51 116.788 51 114.059V114.059Z" fill="url(#paint5_radial_550_4776)"/>
<g filter="url(#filter0_b_550_4776)">
<circle cx="107" cy="111" r="17.7692" fill="#9FE2FF" fill-opacity="0.8"/>
</g>
<circle cx="107" cy="111" r="17.5" stroke="white" stroke-width="7"/>
<rect x="114" y="124" width="7" height="19.5932" rx="3.5" transform="rotate(-45 114 124)" fill="white"/>
</g>
<defs>
<filter id="filter0_b_550_4776" x="84.2308" y="88.2307" width="45.5385" height="45.5385" filterUnits="userSpaceOnUse" color-interpolation-filters="sRGB">
<feFlood flood-opacity="0" result="BackgroundImageFix"/>
<feGaussianBlur in="BackgroundImageFix" stdDeviation="2.5"/>
<feComposite in2="SourceAlpha" operator="in" result="effect1_backgroundBlur_550_4776"/>
<feBlend mode="normal" in="SourceGraphic" in2="effect1_backgroundBlur_550_4776" result="shape"/>
</filter>
<radialGradient id="paint0_radial_550_4776" cx="0" cy="0" r="1" gradientUnits="userSpaceOnUse" gradientTransform="translate(51.75 82.5) rotate(-44.5342) scale(21.7443)">
<stop stop-color="white"/>
<stop offset="1" stop-color="#CBC8C8"/>
</radialGradient>
<radialGradient id="paint1_radial_550_4776" cx="0" cy="0" r="1" gradientUnits="userSpaceOnUse" gradientTransform="translate(49.625 106) rotate(-23.6186) scale(25.3757 18.6325)">
<stop stop-color="white"/>
<stop offset="1" stop-color="#CBC8C8"/>
</radialGradient>
<radialGradient id="paint2_radial_550_4776" cx="0" cy="0" r="1" gradientUnits="userSpaceOnUse" gradientTransform="translate(106.75 82.5) rotate(-44.5342) scale(21.7443)">
<stop stop-color="white"/>
<stop offset="1" stop-color="#CBC8C8"/>
</radialGradient>
<radialGradient id="paint3_radial_550_4776" cx="0" cy="0" r="1" gradientUnits="userSpaceOnUse" gradientTransform="translate(104.625 106) rotate(-23.6186) scale(25.3757 18.6325)">
<stop stop-color="white"/>
<stop offset="1" stop-color="#CBC8C8"/>
</radialGradient>
<radialGradient id="paint4_radial_550_4776" cx="0" cy="0" r="1" gradientUnits="userSpaceOnUse" gradientTransform="translate(71.5 82.5) rotate(-43.8949) scale(38.4973)">
<stop stop-color="#60C6B3"/>
<stop offset="1" stop-color="#AFFFA2"/>
</radialGradient>
<radialGradient id="paint5_radial_550_4776" cx="0" cy="0" r="1" gradientUnits="userSpaceOnUse" gradientTransform="translate(68.5 114) rotate(-26.1205) scale(43.2319 32.0883)">
<stop stop-color="#60C6B3"/>
<stop offset="1" stop-color="#AFFFA2"/>
</radialGradient>
</defs>
</svg>
