<svg width="18" height="20" viewBox="0 0 18 20" fill="none" xmlns="http://www.w3.org/2000/svg">
<path d="M1 7.5C1 4.67157 1 3.25736 1.87868 2.37868C2.75736 1.5 4.17157 1.5 7 1.5H11C13.8284 1.5 15.2426 1.5 16.1213 2.37868C17 3.25736 17 4.67157 17 7.5V14.3276C17 17.0109 17 18.3525 16.1557 18.7629C15.3114 19.1733 14.2565 18.3444 12.1465 16.6866L11.4713 16.156C10.2849 15.2239 9.69173 14.7578 9 14.7578C8.30827 14.7578 7.71509 15.2239 6.52871 16.156L5.85346 16.6866C3.74355 18.3444 2.68859 19.1733 1.84429 18.7629C1 18.3525 1 17.0109 1 14.3276V7.5Z" fill="#558E99" stroke="#558E99" stroke-width="2"/>
</svg>
