<svg width="36" height="32" viewBox="0 0 36 32" fill="none" xmlns="http://www.w3.org/2000/svg">
<path fill-rule="evenodd" clip-rule="evenodd" d="M3.7082 8C1.66022 8 0 9.66022 0 11.7082V26C0 28.8284 0 30.2426 0.87868 31.1213C1.75736 32 3.17157 32 6 32H30C32.8284 32 34.2426 32 35.1213 31.1213C36 30.2426 36 28.8284 36 26V11.7082C36 9.66022 34.3398 8 32.2918 8C30.8872 8 29.6032 7.20644 28.9751 5.95016L27.1056 2.21115C26.5677 1.13531 26.2987 0.597397 25.8154 0.298698C25.3321 0 24.7307 0 23.5279 0H12.4721C11.2693 0 10.6679 0 10.1846 0.298698C9.7013 0.597397 9.43234 1.13531 8.89443 2.21114L7.02492 5.95016C6.39678 7.20644 5.11277 8 3.7082 8ZM24 18C24 21.3137 21.3137 24 18 24C14.6863 24 12 21.3137 12 18C12 14.6863 14.6863 12 18 12C21.3137 12 24 14.6863 24 18ZM26 18C26 22.4183 22.4183 26 18 26C13.5817 26 10 22.4183 10 18C10 13.5817 13.5817 10 18 10C22.4183 10 26 13.5817 26 18Z" fill="black"/>
</svg>
