<svg width="14" height="12" viewBox="0 0 14 12" fill="none" xmlns="http://www.w3.org/2000/svg">
<path d="M1.99811 4.2467L2.43298 5.00772C2.70983 5.4922 2.84825 5.73444 2.84825 6C2.84825 6.26556 2.70983 6.5078 2.43299 6.99227L2.43298 6.99228L1.99811 7.7533C0.759808 9.92034 0.140655 11.0039 0.62348 11.5412C1.1063 12.0785 2.24961 11.5783 4.53623 10.5779L10.8119 7.83231C12.6074 7.04678 13.5051 6.65402 13.5051 6C13.5051 5.34598 12.6074 4.95322 10.8119 4.16769L4.53624 1.4221C2.24962 0.421707 1.1063 -0.0784916 0.62348 0.458828C0.140655 0.996147 0.759808 2.07966 1.99811 4.2467Z" fill="white"/>
</svg>
