<svg width="52" height="30" viewBox="0 0 52 30" fill="none" xmlns="http://www.w3.org/2000/svg">
<path d="M15.8135 9V6.81777C15.8135 6.36613 15.4474 6 14.9958 6H5.47695C5.02531 6 4.65918 6.36613 4.65918 6.81777V19.8775C4.65918 20.3292 5.02531 20.6953 5.47695 20.6953H7.99995" stroke="#558E99" stroke-width="2" stroke-miterlimit="10"/>
<path d="M18.7331 9.25476H9.21425C8.76261 9.25476 8.39648 9.62089 8.39648 10.0725V23.1323C8.39648 23.5839 8.76261 23.95 9.21425 23.95H18.7331C19.1847 23.95 19.5508 23.5839 19.5508 23.1323V10.0725C19.5508 9.62089 19.1847 9.25476 18.7331 9.25476Z" stroke="#558E99" stroke-width="2" stroke-miterlimit="10"/>
<path d="M11.1279 12.3459H16.8359" stroke="#558E99" stroke-width="2" stroke-linecap="round" stroke-linejoin="round"/>
<path d="M11.1279 16.0422H16.8359" stroke="#558E99" stroke-width="2" stroke-linecap="round" stroke-linejoin="round"/>
<path d="M38.152 14.334H33.14V13.032H36.668V8.244H35.24V9.532H29.612V8.244H28.184V13.032H31.684V14.334H26.686V15.51H38.152V14.334ZM29.612 11.884V10.638H35.24V11.884H29.612ZM27.974 16.574V17.736H35.296V20.592H36.738V16.574H27.974ZM51.3529 14.138V12.948H49.3789V7.936H47.9369V20.578H49.3789V14.138H51.3529ZM44.0169 11.058V8.986H42.5749V11.058C42.5749 11.646 42.5002 12.2293 42.3509 12.808C42.2016 13.3773 41.9869 13.914 41.7069 14.418C41.4362 14.922 41.1002 15.3793 40.6989 15.79C40.3069 16.1913 39.8636 16.5133 39.3689 16.756L40.2509 17.918C40.9789 17.5447 41.5996 17.0127 42.1129 16.322C42.6356 15.622 43.0322 14.8333 43.3029 13.956C43.5736 14.8053 43.9562 15.552 44.4509 16.196C44.9456 16.8307 45.5336 17.3253 46.2149 17.68L47.0969 16.532C46.6209 16.2987 46.1916 15.9907 45.8089 15.608C45.4356 15.216 45.1136 14.7773 44.8429 14.292C44.5816 13.8067 44.3762 13.2887 44.2269 12.738C44.0869 12.178 44.0169 11.618 44.0169 11.058Z" fill="#558E99"/>
</svg>
