<svg width="24" height="25" viewBox="0 0 24 25" fill="none" xmlns="http://www.w3.org/2000/svg">
<path d="M15.8135 6.5V4.31777C15.8135 3.86613 15.4474 3.5 14.9958 3.5H5.47695C5.02531 3.5 4.65918 3.86613 4.65918 4.31777V17.3775C4.65918 17.8292 5.02531 18.1953 5.47695 18.1953H7.99995" stroke="#272424" stroke-width="2" stroke-miterlimit="10"/>
<path d="M18.7331 6.75391H9.21425C8.76261 6.75391 8.39648 7.12003 8.39648 7.57167V20.6314C8.39648 21.0831 8.76261 21.4492 9.21425 21.4492H18.7331C19.1847 21.4492 19.5508 21.0831 19.5508 20.6314V7.57167C19.5508 7.12003 19.1847 6.75391 18.7331 6.75391Z" stroke="#272424" stroke-width="2" stroke-miterlimit="10"/>
<path d="M11.1279 9.84766H16.8359" stroke="#272424" stroke-width="2" stroke-linecap="round" stroke-linejoin="round"/>
<path d="M11.1279 13.543H16.8359" stroke="#272424" stroke-width="2" stroke-linecap="round" stroke-linejoin="round"/>
</svg>
