<svg width="21" height="23" viewBox="0 0 21 23" fill="none" xmlns="http://www.w3.org/2000/svg">
<path d="M1 1H3.27" stroke="#231815" stroke-width="2" stroke-miterlimit="10"/>
<path d="M12.1604 1H9.86035" stroke="#231815" stroke-width="2" stroke-miterlimit="10"/>
<path d="M12.1601 1V5.79C12.1601 8.84 9.69012 11.31 6.64012 11.31C3.59012 11.31 1.12012 8.84 1.12012 5.79V1" stroke="#231815" stroke-width="2" stroke-linecap="round" stroke-linejoin="round"/>
<path d="M17.9201 12.1201V16.8601C17.9201 19.4201 15.4001 21.5001 12.2801 21.5001C9.17014 21.5001 6.64014 19.4201 6.64014 16.8601V12.1201" stroke="#231815" stroke-width="2" stroke-linecap="round" stroke-linejoin="round"/>
<path d="M17.9204 12.1104C19.014 12.1104 19.9004 11.2239 19.9004 10.1304C19.9004 9.03687 19.014 8.15039 17.9204 8.15039C16.8269 8.15039 15.9404 9.03687 15.9404 10.1304C15.9404 11.2239 16.8269 12.1104 17.9204 12.1104Z" stroke="#231815" stroke-width="2" stroke-linecap="round" stroke-linejoin="round"/>
</svg>
