<svg width="37" height="41" viewBox="0 0 37 41" fill="none" xmlns="http://www.w3.org/2000/svg">
<path d="M26.7788 7.87891H0.580079C0.259525 7.87891 0 8.13873 0 8.45899V39.7621C0 40.0824 0.259525 40.3422 0.580079 40.3422H26.7788C27.0994 40.3422 27.3589 40.0824 27.3589 39.7621V8.45899C27.3589 8.13873 27.0994 7.87891 26.7788 7.87891Z" fill="#99E4D2"/>
<path d="M21.4302 10.9933V8.55149C21.4302 4.27763 17.953 0.800781 13.6792 0.800781C9.40562 0.800781 5.92847 4.27763 5.92847 8.55149V10.9933C5.65535 11.1794 5.47559 11.4927 5.47559 11.8474C5.47559 12.4169 5.93905 12.8803 6.50855 12.8803C7.07836 12.8803 7.54151 12.4169 7.54151 11.8474C7.54151 11.4927 7.36175 11.1791 7.08863 10.9933V8.55149C7.08863 4.91723 10.0452 1.96094 13.6795 1.96094C17.3134 1.96094 20.27 4.91723 20.27 8.55149V10.9933C19.9969 11.1791 19.8168 11.4927 19.8168 11.8474C19.8168 12.4169 20.2803 12.8803 20.8501 12.8803C21.4196 12.8803 21.8831 12.4169 21.8831 11.8474C21.8831 11.4927 21.7033 11.1794 21.4302 10.9933Z" fill="#7CB8A9"/>
<path d="M17.727 22.1168H16.0276V20.4174C16.0276 19.7479 15.4829 19.2031 14.8133 19.2031H12.5459C11.8764 19.2031 11.3317 19.7479 11.3317 20.4174V22.1168H9.63221C8.9627 22.1168 8.41797 22.6615 8.41797 23.3311V25.5985C8.41797 26.268 8.9627 26.8124 9.63221 26.8124H11.3317V28.5122C11.3317 29.1817 11.8764 29.7264 12.5459 29.7264H14.8133C15.4829 29.7264 16.0276 29.1817 16.0276 28.5122V26.8124H17.727C18.3965 26.8124 18.9413 26.268 18.9413 25.5985V23.3311C18.9413 22.6615 18.3965 22.1168 17.727 22.1168Z" fill="white"/>
<path d="M34.4531 21.5391H23.7627C23.4424 21.5391 23.1826 21.7989 23.1826 22.1191V38.1396C23.1826 39.3865 24.1968 40.4007 25.4437 40.4007H32.7721C34.0186 40.4007 35.0329 39.3865 35.0329 38.1396V22.1191C35.0332 21.7989 34.7733 21.5391 34.4531 21.5391Z" fill="#FFDE76"/>
<path d="M34.4529 21.5391H31.7845C32.1051 21.5391 32.3646 21.7989 32.3646 22.1191V38.1396C32.3646 39.3865 31.3504 40.4007 30.1035 40.4007H32.7719C34.0187 40.4007 35.033 39.3865 35.033 38.1396V22.1191C35.033 21.7989 34.7732 21.5391 34.4529 21.5391Z" fill="#ECB46C"/>
<path d="M23.1826 25.9336H35.0332V35.9962H23.1826V25.9336Z" fill="#F9F1EF"/>
<path d="M32.3647 25.9336H35.0331V35.9962H32.3647V25.9336Z" fill="#CCCCCC"/>
<path d="M32.0346 30.2305H26.1807C25.8604 30.2305 25.6006 29.9706 25.6006 29.6504C25.6006 29.3298 25.8604 29.0703 26.1807 29.0703H32.0346C32.3549 29.0703 32.6147 29.3298 32.6147 29.6504C32.6147 29.9706 32.3549 30.2305 32.0346 30.2305Z" fill="#494949"/>
<path d="M32.0346 32.5781H26.1807C25.8604 32.5781 25.6006 32.3186 25.6006 31.998C25.6006 31.6778 25.8604 31.418 26.1807 31.418H32.0346C32.3549 31.418 32.6147 31.6778 32.6147 31.998C32.6147 32.3186 32.3549 32.5781 32.0346 32.5781Z" fill="#494949"/>
<path d="M34.6996 15.2617H23.5161C23.1956 15.2617 22.936 15.5212 22.936 15.8415V18.2392C22.936 18.5597 23.1956 18.8192 23.5161 18.8192H34.6999C35.0201 18.8192 35.2799 18.5597 35.2799 18.2392V15.8415C35.2796 15.5212 35.0201 15.2617 34.6996 15.2617Z" fill="#7C494B"/>
<path d="M34.6993 15.2617H32.6113V18.8192H34.6993C35.0199 18.8192 35.2794 18.5597 35.2794 18.2392V15.8415C35.2794 15.5212 35.0199 15.2617 34.6993 15.2617Z" fill="#721C28"/>
<path d="M36.1085 17.6602H22.1074C21.7872 17.6602 21.5273 17.9197 21.5273 18.2402V22.1174C21.5273 22.4377 21.7872 22.6975 22.1074 22.6975H36.1085C36.4287 22.6975 36.6886 22.4377 36.6886 22.1174V18.2402C36.6886 17.9197 36.4287 17.6602 36.1085 17.6602Z" fill="#F99293"/>
<path d="M36.1083 17.6602H34.02V22.6975H36.1083C36.4286 22.6975 36.6884 22.4377 36.6884 22.1174V18.2402C36.6884 17.9197 36.4286 17.6602 36.1083 17.6602Z" fill="#D06061"/>
<path d="M24.2295 19.8398C23.9089 19.8398 23.6494 20.0994 23.6494 20.4199V22.6976H24.8096V20.4199C24.8096 20.0994 24.5497 19.8398 24.2295 19.8398Z" fill="#7C494B"/>
<path d="M26.1807 19.8398C25.8604 19.8398 25.6006 20.0994 25.6006 20.4199V22.6976H26.7607V20.4199C26.7607 20.0994 26.5012 19.8398 26.1807 19.8398Z" fill="#7C494B"/>
<path d="M28.1318 19.8398C27.8113 19.8398 27.5518 20.0994 27.5518 20.4199V22.6976H28.7119V20.4199C28.7119 20.0994 28.4521 19.8398 28.1318 19.8398Z" fill="#7C494B"/>
<path d="M30.083 19.8398C29.7628 19.8398 29.5029 20.0994 29.5029 20.4199V22.6976H30.6631V20.4199C30.6631 20.0994 30.4036 19.8398 30.083 19.8398Z" fill="#7C494B"/>
<path d="M32.0347 19.8398C31.7141 19.8398 31.4546 20.0994 31.4546 20.4199V22.6976H32.6147V20.4199C32.6147 20.0994 32.3549 19.8398 32.0347 19.8398Z" fill="#7C494B"/>
<path d="M33.9858 19.8398C33.6656 19.8398 33.4058 20.0994 33.4058 20.4199V22.6976H34.5659V20.4199C34.5659 20.0994 34.3064 19.8398 33.9858 19.8398Z" fill="#7C494B"/>
</svg>
