<?xml version="1.0" encoding="utf-8"?>
<!-- Generator: Adobe Illustrator 26.5.1, SVG Export Plug-In . SVG Version: 6.00 Build 0)  -->
<svg version="1.1" id="Layer_1" xmlns="http://www.w3.org/2000/svg" xmlns:xlink="http://www.w3.org/1999/xlink" x="0px" y="0px"
     viewBox="0 0 512 512" style="enable-background:new 0 0 512 512;" xml:space="preserve">
<g id="Page-1">
	<g id="_x30_41---Books">
		<path id="Shape" class="st0" d="M441.4,123.6v105.9H71.6c-24.9,0-45.1-23.7-45.1-53s20.2-53,45.1-53H441.4z" fill="#F5EFCA"/>
        <path id="Shape_00000061440457029498765860000015601798064936432545_" class="st1" d="M459,238.3c0,9.7-7.9,17.6-17.7,17.7H79.4
			C35.6,256,0,220.4,0,176.6s35.6-79.4,79.4-79.4h361.9c9.8,0,17.7,7.9,17.7,17.7s-7.9,17.7-17.7,17.7H79.4
			c-24.4,0-44.1,19.8-44.1,44.1s19.8,44.1,44.1,44.1h361.9C451.1,220.7,459,228.6,459,238.3z" fill="#F29C1F"/>
        <path id="Rectangle-path" class="st2" d="M53,256h441.4c9.8,0,17.7,7.9,17.7,17.7v88.3c0,9.8-7.9,17.7-17.7,17.7H53
			c-9.8,0-17.7-7.9-17.7-17.7v-88.3C35.3,263.9,43.2,256,53,256z" fill="#7D6599"/>
        <path id="Rectangle-path_00000078755636009848599030000011602951006282165679_" class="st3" d="M17.7,379.6H459
			c9.8,0,17.7,7.9,17.7,17.7v88.3c0,9.8-7.9,17.7-17.7,17.7H17.7c-9.8,0-17.7-7.9-17.7-17.7v-88.3C0,387.5,7.9,379.6,17.7,379.6z" fill="#E64C3C"/>
        <path id="Rectangle-path_00000067227919411051481270000007607621578515145115_" class="st4" d="M17.7,8.8H459
			c9.8,0,17.7,7.9,17.7,17.7v53c0,9.8-7.9,17.7-17.7,17.7H17.7C7.9,97.1,0,89.2,0,79.4v-53C0,16.7,7.9,8.8,17.7,8.8z" fill="#3B97D3"/>
        <path id="Rectangle-path_00000088828354349544049020000016296292510619605131_" class="st5" d="M70.6,8.8h35.3v88.3H70.6V8.8z" fill="#67B9CC"/>
        <path id="Rectangle-path_00000150085568407958619830000010371535433256333196_" class="st5" d="M370.8,8.8h35.3v88.3h-35.3V8.8z" fill="#67B9CC"
        />
        <path id="Rectangle-path_00000158735581332185471760000005603480104378658694_" class="st6" d="M176.6,291.3h194.2
			c4.9,0,8.8,4,8.8,8.8v35.3c0,4.9-4,8.8-8.8,8.8H176.6c-4.9,0-8.8-4-8.8-8.8v-35.3C167.7,295.3,171.7,291.3,176.6,291.3z" fill="#9FC9D3"/>
        <path id="Rectangle-path_00000088845898991448037590000008616046032144401794_" class="st7" d="M423.7,256h17.7v123.6h-17.7V256z" fill="#B49ACA"
        />
        <path id="Rectangle-path_00000013880460174940492410000005791687630431266953_" class="st7" d="M105.9,256h17.7v123.6h-17.7V256z" fill="#B49ACA"
        />
        <ellipse id="Oval" class="st0" cx="238.3" cy="441.4" rx="79.4" ry="26.5"/>
        <g>
			<path id="Rectangle-path_00000116198104616438823460000001214004529960466335_" class="st1" d="M53,379.6h35.3v123.6H53V379.6z" fill="#F29C1F"
            />
            <path id="Rectangle-path_00000142152858975650766340000010309008480485442970_" class="st1" d="M388.4,379.6h35.3v123.6h-35.3
				V379.6z" fill="#F29C1F"/>
		</g>
	</g>
</g>
</svg>