<svg width="19" height="20" viewBox="0 0 19 20" fill="none" xmlns="http://www.w3.org/2000/svg">
<path d="M1.00244 11C1.00244 9.11438 1.00244 8.17157 1.58823 7.58579C2.17401 7 3.11682 7 5.00244 7H13.0024C14.8881 7 15.8309 7 16.4167 7.58579C17.0024 8.17157 17.0024 9.11438 17.0024 11V13C17.0024 15.8284 17.0024 17.2426 16.1238 18.1213C15.2451 19 13.8309 19 11.0024 19H7.00244C4.17401 19 2.7598 19 1.88112 18.1213C1.00244 17.2426 1.00244 15.8284 1.00244 13V11Z" stroke="black" stroke-width="2"/>
<path d="M13.0024 6V5C13.0024 2.79086 11.2116 1 9.00244 1V1C6.7933 1 5.00244 2.79086 5.00244 5V6" stroke="black" stroke-width="2" stroke-linecap="round"/>
<circle cx="9.00244" cy="13" r="2" fill="black"/>
</svg>
