<svg width="16" height="22" viewBox="0 0 16 22" fill="none" xmlns="http://www.w3.org/2000/svg">
<path d="M10.2414 2.25537L11.1364 1.89982C11.1999 2.05976 11.2149 2.20187 11.2204 2.2844C11.2248 2.35243 11.2248 2.42588 11.2247 2.47062C11.2247 2.47454 11.2247 2.47824 11.2247 2.4817C11.2247 2.48778 11.2247 2.49395 11.2247 2.50019C11.2248 2.59566 11.2248 2.70974 11.2181 2.81071C11.2105 2.92683 11.1911 3.09408 11.1187 3.27625L11.1187 3.27625C10.9663 3.66004 10.6623 3.96399 10.2785 4.11646C10.0964 4.18883 9.92911 4.20824 9.81299 4.21587C9.71201 4.22251 9.59794 4.22247 9.50247 4.22244C9.49622 4.22244 9.49005 4.22244 9.48398 4.22244H6.52101C6.51494 4.22244 6.50877 4.22244 6.50253 4.22244C6.40706 4.22247 6.29298 4.22251 6.192 4.21587C6.07588 4.20824 5.90863 4.18883 5.72646 4.11646C5.34267 3.96399 5.03872 3.66004 4.88625 3.27625C4.81388 3.09408 4.79447 2.92683 4.78684 2.81071C4.78021 2.70973 4.78024 2.59566 4.78027 2.50019C4.78027 2.49394 4.78027 2.48778 4.78027 2.4817C4.78027 2.47824 4.78027 2.47455 4.78027 2.47063C4.78023 2.42589 4.78016 2.35243 4.78463 2.2844C4.79006 2.20187 4.80505 2.05976 4.86859 1.89982C4.99565 1.58 5.24894 1.3267 5.56877 1.19964C5.7287 1.1361 5.87082 1.12111 5.95334 1.11569C6.02138 1.11122 6.09483 1.11128 6.13957 1.11132C6.14349 1.11132 6.14719 1.11133 6.15064 1.11133H9.85435C9.8578 1.11133 9.8615 1.11132 9.86542 1.11132C9.91016 1.11128 9.98361 1.11122 10.0516 1.11569C10.1342 1.12111 10.2763 1.1361 10.4362 1.19964M10.2414 2.25537L10.4362 1.19964M10.2414 2.25537L11.1364 1.89982M10.2414 2.25537L11.1364 1.89982M10.4362 1.19964C10.7561 1.3267 11.0093 1.58 11.1364 1.89982M10.4362 1.19964L11.1364 1.89982" stroke="black" stroke-width="2"/>
<rect x="1.33594" y="1" width="13.3333" height="20" rx="2" stroke="black" stroke-width="2"/>
<circle cx="8.00271" cy="17.6668" r="1.11111" fill="black"/>
</svg>
