<svg width="24" height="24" viewBox="0 0 24 24" fill="none" xmlns="http://www.w3.org/2000/svg">
<path d="M12.0141 10.9995C11.7489 10.9995 11.4945 11.1049 11.307 11.2924C11.1194 11.4799 11.0141 11.7343 11.0141 11.9995V14.9995C11.0141 15.2647 11.1194 15.5191 11.307 15.7066C11.4945 15.8942 11.7489 15.9995 12.0141 15.9995C12.2793 15.9995 12.5337 15.8942 12.7212 15.7066C12.9087 15.5191 13.0141 15.2647 13.0141 14.9995V11.9995C13.0141 11.7343 12.9087 11.4799 12.7212 11.2924C12.5337 11.1049 12.2793 10.9995 12.0141 10.9995ZM12.0141 7.99951C11.8163 7.99951 11.623 8.05816 11.4585 8.16804C11.2941 8.27792 11.1659 8.4341 11.0902 8.61683C11.0145 8.79955 10.9947 9.00062 11.0333 9.1946C11.0719 9.38858 11.1671 9.56677 11.307 9.70662C11.4468 9.84647 11.625 9.94171 11.819 9.9803C12.013 10.0189 12.214 9.99908 12.3968 9.92339C12.5795 9.8477 12.7357 9.71953 12.8456 9.55508C12.9554 9.39063 13.0141 9.19729 13.0141 8.99951C13.0141 8.7343 12.9087 8.47994 12.7212 8.29241C12.5337 8.10487 12.2793 7.99951 12.0141 7.99951ZM12.0141 1.99951C10.7009 1.99951 9.40051 2.25817 8.18725 2.76072C6.974 3.26326 5.87161 3.99986 4.94302 4.92844C3.06766 6.80381 2.01409 9.34735 2.01409 11.9995C2.00535 14.3086 2.80488 16.548 4.27409 18.3295L2.27409 20.3295C2.13533 20.4701 2.04133 20.6487 2.00396 20.8427C1.96659 21.0367 1.98751 21.2374 2.06409 21.4195C2.14715 21.5994 2.28179 21.7506 2.45093 21.8539C2.62008 21.9572 2.81609 22.0078 3.01409 21.9995H12.0141C14.6663 21.9995 17.2098 20.9459 19.0852 19.0706C20.9605 17.1952 22.0141 14.6517 22.0141 11.9995C22.0141 9.34735 20.9605 6.80381 19.0852 4.92844C17.2098 3.05308 14.6663 1.99951 12.0141 1.99951ZM12.0141 19.9995H5.42409L6.35409 19.0695C6.44858 18.9769 6.52375 18.8665 6.57524 18.7446C6.62674 18.6227 6.65354 18.4918 6.65409 18.3595C6.65033 18.0957 6.5425 17.8441 6.35409 17.6595C5.04467 16.3516 4.22926 14.63 4.04678 12.7883C3.86429 10.9466 4.32603 9.09852 5.35331 7.55903C6.3806 6.01955 7.90988 4.88387 9.6806 4.34548C11.4513 3.8071 13.3539 3.89932 15.0643 4.60643C16.7747 5.31353 18.1869 6.59179 19.0605 8.2234C19.9341 9.85502 20.215 11.7391 19.8552 13.5545C19.4955 15.37 18.5174 17.0046 17.0876 18.1798C15.6579 19.3549 13.8649 19.9981 12.0141 19.9995Z" fill="#AAAAAA"/>
</svg>
