<svg width="24" height="24" viewBox="0 0 24 24" fill="none" xmlns="http://www.w3.org/2000/svg">
<path d="M23.9399 10.7975L19.1587 11.2756C19.1827 11.5183 19.1947 11.7609 19.1947 12.0012C19.1947 15.968 15.968 19.1947 12.0012 19.1947C8.03444 19.1947 4.80769 15.968 4.80769 12.0012C4.80769 8.03444 8.03444 4.80769 12.0012 4.80769C12.6571 4.80769 13.3106 4.89899 13.9473 5.07678L15.2424 0.446892C14.1852 0.151367 13.0944 0 12.0012 0C5.38192 0 0 5.38432 0 11.9988C0 18.6133 5.38192 23.9976 11.9988 23.9976C18.6157 23.9976 23.9976 18.6157 23.9976 11.9988C23.9976 11.6 23.9784 11.1939 23.9375 10.7951L23.9399 10.7975Z" fill="#558E99"/>
<path d="M18.0222 9.0419H20.4249V7.07654H22.3878V4.6739H20.4249V2.71094H18.0222V4.6739H16.0569V7.07654H18.0222V9.0419Z" fill="#558E99"/>
</svg>
