<svg width="24" height="24" viewBox="0 0 24 24" fill="none" xmlns="http://www.w3.org/2000/svg">
<path d="M20.219 12.66C20.0587 12.4775 19.9703 12.2429 19.9703 12C19.9703 11.7571 20.0587 11.5225 20.219 11.34L21.499 9.90002C21.6401 9.74269 21.7277 9.54472 21.7492 9.33452C21.7708 9.12433 21.7252 8.9127 21.619 8.73002L19.619 5.27002C19.5139 5.08754 19.3539 4.94289 19.1618 4.8567C18.9696 4.77051 18.7552 4.74718 18.549 4.79002L16.669 5.17002C16.4298 5.21945 16.1808 5.17961 15.9689 5.05802C15.757 4.93643 15.597 4.7415 15.519 4.51002L14.909 2.68002C14.8419 2.4814 14.7141 2.30888 14.5436 2.18686C14.3732 2.06484 14.1687 1.99948 13.959 2.00002H9.95902C9.74095 1.98864 9.52515 2.04894 9.34458 2.17173C9.16401 2.29452 9.0286 2.47304 8.95902 2.68002L8.39902 4.51002C8.32102 4.7415 8.16099 4.93643 7.94913 5.05802C7.73727 5.17961 7.48824 5.21945 7.24902 5.17002L5.31902 4.79002C5.12357 4.7624 4.92432 4.79324 4.74637 4.87866C4.56841 4.96407 4.41972 5.10025 4.31902 5.27002L2.31902 8.73002C2.21018 8.91067 2.16124 9.1211 2.1792 9.33124C2.19716 9.54138 2.2811 9.74046 2.41902 9.90002L3.68902 11.34C3.84934 11.5225 3.93775 11.7571 3.93775 12C3.93775 12.2429 3.84934 12.4775 3.68902 12.66L2.41902 14.1C2.2811 14.2596 2.19716 14.4587 2.1792 14.6688C2.16124 14.8789 2.21018 15.0894 2.31902 15.27L4.31902 18.73C4.42412 18.9125 4.58414 19.0571 4.77627 19.1433C4.9684 19.2295 5.18284 19.2529 5.38902 19.21L7.26902 18.83C7.50824 18.7806 7.75727 18.8204 7.96913 18.942C8.18099 19.0636 8.34102 19.2585 8.41902 19.49L9.02902 21.32C9.0986 21.527 9.23401 21.7055 9.41458 21.8283C9.59515 21.9511 9.81095 22.0114 10.029 22H14.029C14.2387 22.0006 14.4432 21.9352 14.6136 21.8132C14.7841 21.6912 14.9119 21.5186 14.979 21.32L15.589 19.49C15.667 19.2585 15.827 19.0636 16.0389 18.942C16.2508 18.8204 16.4998 18.7806 16.739 18.83L18.619 19.21C18.8252 19.2529 19.0396 19.2295 19.2318 19.1433C19.4239 19.0571 19.5839 18.9125 19.689 18.73L21.689 15.27C21.7952 15.0873 21.8408 14.8757 21.8192 14.6655C21.7977 14.4553 21.7101 14.2573 21.569 14.1L20.219 12.66ZM18.729 14L19.529 14.9L18.249 17.12L17.069 16.88C16.3488 16.7328 15.5996 16.8551 14.9636 17.2238C14.3276 17.5925 13.8492 18.1819 13.619 18.88L13.239 20H10.679L10.319 18.86C10.0889 18.1619 9.6104 17.5725 8.97442 17.2038C8.33845 16.8351 7.58924 16.7128 6.86902 16.86L5.68902 17.1L4.38902 14.89L5.18902 13.99C5.68097 13.44 5.95295 12.7279 5.95295 11.99C5.95295 11.2521 5.68097 10.54 5.18902 9.99002L4.38902 9.09002L5.66902 6.89002L6.84902 7.13002C7.56924 7.27724 8.31845 7.1549 8.95442 6.78622C9.5904 6.41753 10.0689 5.82818 10.299 5.13002L10.679 4.00002H13.239L13.619 5.14002C13.8492 5.83818 14.3276 6.42753 14.9636 6.79622C15.5996 7.1649 16.3488 7.28724 17.069 7.14002L18.249 6.90002L19.529 9.12002L18.729 10.02C18.2426 10.5688 17.974 11.2767 17.974 12.01C17.974 12.7433 18.2426 13.4513 18.729 14ZM11.959 8.00002C11.1679 8.00002 10.3945 8.23461 9.73674 8.67414C9.07894 9.11366 8.56625 9.73838 8.2635 10.4693C7.96075 11.2002 7.88154 12.0045 8.03588 12.7804C8.19022 13.5563 8.57118 14.269 9.13059 14.8284C9.69 15.3879 10.4027 15.7688 11.1787 15.9232C11.9546 16.0775 12.7588 15.9983 13.4898 15.6955C14.2207 15.3928 14.8454 14.8801 15.2849 14.2223C15.7244 13.5645 15.959 12.7911 15.959 12C15.959 10.9392 15.5376 9.92174 14.7874 9.17159C14.0373 8.42144 13.0199 8.00002 11.959 8.00002ZM11.959 14C11.5635 14 11.1768 13.8827 10.8479 13.663C10.519 13.4432 10.2626 13.1308 10.1113 12.7654C9.95988 12.3999 9.92028 11.9978 9.99745 11.6098C10.0746 11.2219 10.2651 10.8655 10.5448 10.5858C10.8245 10.3061 11.1809 10.1156 11.5688 10.0384C11.9568 9.96128 12.3589 10.0009 12.7244 10.1523C13.0898 10.3036 13.4022 10.56 13.622 10.8889C13.8417 11.2178 13.959 11.6045 13.959 12C13.959 12.5304 13.7483 13.0392 13.3732 13.4142C12.9982 13.7893 12.4895 14 11.959 14Z" fill="#AAAAAA"/>
</svg>
