<svg width="16" height="16" viewBox="0 0 16 16" fill="none" xmlns="http://www.w3.org/2000/svg">
<g clip-path="url(#clip0_2428_8743)">
<path d="M7.89063 13.0615C10.652 13.0615 12.8906 10.8229 12.8906 8.06152C12.8906 5.3001 10.652 3.06152 7.89063 3.06152C5.1292 3.06152 2.89062 5.3001 2.89062 8.06152C2.89062 10.8229 5.1292 13.0615 7.89063 13.0615Z" fill="#FCCB9D"/>
<path d="M8.68529 0H7.31543V1.59589H8.68529V0Z" fill="#FCCB9D"/>
<path d="M8.68529 14.4111H7.31543V16.007H8.68529V14.4111Z" fill="#FCCB9D"/>
<path d="M16.007 7.31543H14.4111V8.68529H16.007V7.31543Z" fill="#FCCB9D"/>
<path d="M1.59589 7.31543H0V8.68529H1.59589V7.31543Z" fill="#FCCB9D"/>
<path d="M13.0137 12.0481L12.0449 13.0166L13.1732 14.1453L14.142 13.1768L13.0137 12.0481Z" fill="#FCCB9D"/>
<path d="M2.82882 1.85932L1.86035 2.82812L2.98901 3.95639L3.95748 2.98758L2.82882 1.85932Z" fill="#FCCB9D"/>
<path d="M13.1763 1.86177L12.0479 2.99023L13.0165 3.95887L14.145 2.83041L13.1763 1.86177Z" fill="#FCCB9D"/>
<path d="M2.98491 12.0454L1.85645 13.1738L2.82508 14.1425L3.95355 13.014L2.98491 12.0454Z" fill="#FCCB9D"/>
</g>
<defs>
<clipPath id="clip0_2428_8743">
<rect width="16" height="16" fill="white"/>
</clipPath>
</defs>
</svg>
