<svg width="56" height="56" viewBox="0 0 56 56" fill="none" xmlns="http://www.w3.org/2000/svg">
<path d="M0 0H56V51C56 53.7614 53.7614 56 51 56H0V0Z" fill="#A0A4A6"/>
<path d="M26 31L26 28" stroke="white" stroke-width="2" stroke-linecap="round"/>
<path d="M30 31L30 28" stroke="white" stroke-width="2" stroke-linecap="round"/>
<path d="M19 23H37V23C36.0681 23 35.6022 23 35.2346 23.1522C34.7446 23.3552 34.3552 23.7446 34.1522 24.2346C34 24.6022 34 25.0681 34 26V32C34 33.8856 34 34.8284 33.4142 35.4142C32.8284 36 31.8856 36 30 36H26C24.1144 36 23.1716 36 22.5858 35.4142C22 34.8284 22 33.8856 22 32V26C22 25.0681 22 24.6022 21.8478 24.2346C21.6448 23.7446 21.2554 23.3552 20.7654 23.1522C20.3978 23 19.9319 23 19 23V23Z" stroke="white" stroke-width="2" stroke-linecap="round"/>
<path d="M26.0681 19.3706C26.1821 19.2643 26.4332 19.1703 26.7825 19.1033C27.1318 19.0363 27.5597 19 28 19C28.4403 19 28.8682 19.0363 29.2175 19.1033C29.5668 19.1703 29.8179 19.2643 29.9319 19.3706" stroke="white" stroke-width="2" stroke-linecap="round"/>
</svg>
