<svg width="21" height="22" viewBox="0 0 21 22" fill="none" xmlns="http://www.w3.org/2000/svg">
<path d="M9.9342 5.07915C10.285 5.02538 10.6393 4.99864 10.9942 4.99915C14.1742 4.99915 17.1642 7.28915 18.9042 10.9991C18.6381 11.5637 18.3375 12.1114 18.0042 12.6391C17.8984 12.803 17.8428 12.9941 17.8442 13.1891C17.8464 13.4074 17.92 13.6189 18.0537 13.7914C18.1873 13.9639 18.3738 14.088 18.5846 14.1447C18.7953 14.2013 19.0188 14.1875 19.221 14.1052C19.4232 14.023 19.5929 13.8769 19.7042 13.6891C20.1701 12.9571 20.5748 12.1878 20.9142 11.3891C20.9679 11.2644 20.9955 11.13 20.9955 10.9941C20.9955 10.8583 20.9679 10.7239 20.9142 10.5991C18.8942 5.90915 15.0942 2.99915 10.9942 2.99915C10.5249 2.99678 10.0563 3.03695 9.5942 3.11915C9.46288 3.14147 9.33724 3.18944 9.22446 3.26032C9.11168 3.3312 9.01396 3.4236 8.93689 3.53225C8.85982 3.64089 8.8049 3.76366 8.77527 3.89352C8.74564 4.02339 8.74188 4.15783 8.7642 4.28915C8.78653 4.42047 8.8345 4.54611 8.90538 4.65889C8.97626 4.77167 9.06866 4.86939 9.17731 4.94646C9.28595 5.02354 9.40871 5.07845 9.53858 5.10808C9.66845 5.13771 9.80288 5.14147 9.9342 5.11915V5.07915ZM2.7042 1.28915C2.61097 1.19591 2.50028 1.12195 2.37845 1.07149C2.25663 1.02103 2.12606 0.995056 1.9942 0.995056C1.86234 0.995056 1.73178 1.02103 1.60995 1.07149C1.48813 1.12195 1.37744 1.19591 1.2842 1.28915C1.0959 1.47745 0.990112 1.73285 0.990112 1.99915C0.990112 2.26545 1.0959 2.52084 1.2842 2.70915L4.3842 5.79915C2.96978 7.16068 1.84406 8.79313 1.0742 10.5991C1.01914 10.7253 0.990719 10.8615 0.990719 10.9991C0.990719 11.1368 1.01914 11.273 1.0742 11.3991C3.0942 16.0891 6.8942 18.9991 10.9942 18.9991C12.7913 18.9867 14.546 18.4516 16.0442 17.4591L19.2842 20.7091C19.3772 20.8029 19.4878 20.8773 19.6096 20.928C19.7315 20.9788 19.8622 21.0049 19.9942 21.0049C20.1262 21.0049 20.2569 20.9788 20.3788 20.928C20.5006 20.8773 20.6112 20.8029 20.7042 20.7091C20.7979 20.6162 20.8723 20.5056 20.9231 20.3837C20.9739 20.2619 21 20.1312 21 19.9991C21 19.8671 20.9739 19.7364 20.9231 19.6146C20.8723 19.4927 20.7979 19.3821 20.7042 19.2891L2.7042 1.28915ZM9.0642 10.4791L11.5142 12.9291C11.3452 12.9776 11.17 13.0012 10.9942 12.9991C10.4638 12.9991 9.95506 12.7884 9.57999 12.4134C9.20492 12.0383 8.9942 11.5296 8.9942 10.9991C8.99216 10.8233 9.01574 10.6482 9.0642 10.4791ZM10.9942 16.9991C7.8142 16.9991 4.8242 14.7091 3.0942 10.9991C3.74029 9.5729 4.65728 8.28572 5.7942 7.20915L7.5642 8.99915C7.14845 9.75794 6.98994 10.6311 7.11246 11.4876C7.23498 12.3441 7.63192 13.1378 8.24373 13.7496C8.85554 14.3614 9.64923 14.7584 10.5057 14.8809C11.3623 15.0034 12.2354 14.8449 12.9942 14.4291L14.5842 15.9991C13.4953 16.64 12.2576 16.9848 10.9942 16.9991Z" fill="#535353"/>
</svg>
